<?xml version="1.0" encoding="iso-8859-1"?>
<!-- Uploaded to: SVG Repo, www.svgrepo.com, Generator: SVG Repo Mixer Tools -->
<svg fill="#ffffff" version="1.1" id="Layer_1" xmlns="http://www.w3.org/2000/svg" xmlns:xlink="http://www.w3.org/1999/xlink" 
	 viewBox="0 0 512 512" xml:space="preserve">
<g>
	<g>
		<path d="M388.995,230.082C384.93,158.511,325.687,99.47,256,99.47s-128.93,59.041-132.995,130.612H0v15.673h512v-15.673H388.995z
			 M138.718,230.082c1.906-28.682,14.165-56.765,34.304-78.063c22.485-23.779,51.954-36.876,82.978-36.876
			s60.494,13.096,82.978,36.876c20.139,21.299,32.398,49.382,34.304,78.063H138.718z"/>
	</g>
</g>
<g>
	<g>
		<polygon points="141.392,325.839 120.141,342.825 93.992,321.925 67.893,342.818 46.694,325.843 36.897,338.078 67.892,362.897 
			93.999,341.996 120.141,362.891 151.179,338.081 		"/>
	</g>
</g>
<g>
	<g>
		<polygon points="371.27,451.227 350.019,468.213 323.869,447.312 297.771,468.206 276.572,451.231 266.775,463.466 
			297.77,488.285 323.877,467.384 350.019,488.279 381.057,463.469 		"/>
	</g>
</g>
<g>
	<g>
		<polygon points="329.474,304.941 308.223,321.927 282.073,301.027 255.975,321.921 234.776,304.945 224.979,317.18 
			255.974,341.999 282.081,321.098 308.223,341.993 339.261,317.183 		"/>
	</g>
</g>
<g>
	<g>
		<polygon points="486.209,357.186 464.958,374.172 438.808,353.272 412.71,374.165 391.511,357.19 381.714,369.425 
			412.709,394.244 438.815,373.343 464.958,394.238 495.995,369.428 		"/>
	</g>
</g>
<g>
	<g>
		<polygon points="193.637,419.88 172.386,436.866 146.237,415.966 120.138,436.859 98.939,419.884 89.142,432.119 120.137,456.938 
			146.244,436.037 172.386,456.932 203.424,432.122 		"/>
	</g>
</g>
<g>
	<g>
		<rect x="248.163" y="23.715" width="15.673" height="52.245"/>
	</g>
</g>
<g>
	<g>
		
			<rect x="352.908" y="86.407" transform="matrix(0.7071 -0.7071 0.7071 0.7071 44.2984 295.4331)" width="51.722" height="15.673"/>
	</g>
</g>
<g>
	<g>
		
			<rect x="130.613" y="68.39" transform="matrix(0.7071 -0.7071 0.7071 0.7071 -26.0947 125.5039)" width="15.673" height="51.722"/>
	</g>
</g>
<g>
	<g>
		<rect x="407.51" y="188.291" width="47.02" height="15.674"/>
	</g>
</g>
<g>
	<g>
		<rect x="57.469" y="188.291" width="47.02" height="15.674"/>
	</g>
</g>
</svg>